# xmcd
#
# Track frame offsets:
# 150
# 15275
# 30020
# 43370
# 62781
# 81470
# 102101
# 122774
# 140947
# 154478
# 169495
# 188391
# 205418
# 227104
#
# Disc length: 3340 seconds
#
#
# Revision: 1
# Processed by: cddbd v1.5.1PL0 Copyright (c) Steve Scherf et al.
# Submitted via: FreeRIP 2.931 
#
DISCID=c00d0a0e
DTITLE=Raúl - en la Academia
DYEAR=2002
DGENRE=Latin
TTITLE0=Tristes recuerdos
TTITLE1=Jamas
TTITLE2=Que no quede huella
TTITLE3=La cima del cielo
TTITLE4=Yo no fui
TTITLE5=Angel
TTITLE6=Si no te hubieras ido
TTITLE7=El triste
TTITLE8=El ausente
TTITLE9=Señora
TTITLE10=Necesito una compañera
TTITLE11=El amar y el querer
TTITLE12=Por mujeres como tu
TTITLE13=Granada
EXTD=
EXTT0=
EXTT1=
EXTT2=
EXTT3=
EXTT4=
EXTT5=
EXTT6=
EXTT7=
EXTT8=
EXTT9=
EXTT10=
EXTT11=
EXTT12=
EXTT13=
PLAYORDER=
